<svg version="1.2" xmlns="http://www.w3.org/2000/svg" viewBox="0 0 102 28" width="102" height="28"><style>.s0{fill:#ee252d}</style><path class="s0" d="m14.2 11.5c-4.3 0-8.6 3.2-8.6 7c0 1.5 0.5 3 1.8 4c0.7 0.5 0.7 1.3-0.1 2.2c-0.9 1-2.2 1.7-3.6 1.7c-1.6 0-3.7-1.5-3.7-4.4c0-1.7 1-5.2 5.3-8.4c4.4-3.4 8.1-4.5 12.5-4.8c9.2-7.5 16.6-8.8 22-8.8c5.9 0 11.1 1.9 13.8 3c2.4 0.9 11.6 4.8 18.2 7.7c6.8 2.9 12.8 4.7 16.8 4.7c3.3 0 8-1.2 8-5.3c0-1.5-0.6-2.5-1.4-3.1c-0.5-0.4-0.8-1-0.8-1.5c0-1.5 1.3-3.7 3.6-3.7c2.6 0 4 2.6 4 4.6c0 5.4-5.8 9.1-9.7 10.7c-7.3 7.8-14.5 10.9-21.6 10.9c-5.2 0-10.2-1.4-16.8-3.8c-4.9-1.9-20.6-8.4-26.8-10.4c-5.8-1.8-9.1-2.3-12.8-2.3zm20.1-8.6c-4.8 0-9.3 2.5-11.6 6.1c2.8 0.1 6.9 0.7 13.7 3.2c6.9 2.3 19.5 7.8 23.9 9.3c4.9 1.7 9.6 3 14.2 3c5.3 0 9.9-1.7 12.4-6.2c-4.9 0.6-9.5-0.1-16.2-2.8c-5.2-2-19.5-8.7-24.4-10.3c-4-1.4-7.9-2.3-11.9-2.3z" /></svg>